<?xml version="1.0" standalone="no"?><!DOCTYPE svg PUBLIC "-//W3C//DTD SVG 1.1//EN" "http://www.w3.org/Graphics/SVG/1.1/DTD/svg11.dtd"><svg t="1654051828487" class="icon" viewBox="0 0 1024 1024" version="1.1" xmlns="http://www.w3.org/2000/svg" p-id="1491" width="20" height="20" xmlns:xlink="http://www.w3.org/1999/xlink"><defs><style type="text/css">@font-face { font-family: feedback-iconfont; src: url("//at.alicdn.com/t/font_1031158_u69w8yhxdu.woff2?t=1630033759944") format("woff2"), url("//at.alicdn.com/t/font_1031158_u69w8yhxdu.woff?t=1630033759944") format("woff"), url("//at.alicdn.com/t/font_1031158_u69w8yhxdu.ttf?t=1630033759944") format("truetype"); }
</style></defs><path d="M512 512m-447.8 0a447.8 447.8 0 1 0 895.6 0 447.8 447.8 0 1 0-895.6 0Z" fill="#63D9FF" p-id="1492"></path><path d="M284.2 592.3l-19.2 4.5 19.2-4.5z m0-160.6l-19.2-4.5 19.2 4.5z m455.6 0l-19.2 4.5 19.2-4.5z m0 160.6l-19.2-4.5 19.2 4.5zM592.3 739.8l-4.5-19.2 4.5 19.2z m-160.6 0l4.5-19.2-4.5 19.2z m0-455.6l4.5 19.2-4.5-19.2z m160.6 0l-4.5 19.2 4.5-19.2zM410 594.2c0 10.9 8.8 19.8 19.8 19.8s19.8-8.8 19.8-19.8H410z m39.5-109.6c0-10.9-8.8-19.8-19.8-19.8s-19.8 8.8-19.8 19.8h39.6z m125 109.6c0 10.9 8.8 19.8 19.8 19.8 10.9 0 19.8-8.8 19.8-19.8h-39.6zM614 512c0-10.9-8.8-19.8-19.8-19.8-10.9 0-19.8 8.8-19.8 19.8H614z m-121.8 54.8c0 10.9 8.8 19.8 19.8 19.8 10.9 0 19.8-8.8 19.8-19.8h-39.6z m39.6-137c0-10.9-8.8-19.8-19.8-19.8-10.9 0-19.8 8.8-19.8 19.8h39.6z m-228.4 158c-11.7-49.9-11.7-101.8 0-151.7l-38.5-9a371.3 371.3 0 0 0 0 169.7l38.5-9z m417.2-151.6c11.7 49.9 11.7 101.8 0 151.7l38.5 9a371.3 371.3 0 0 0 0-169.7l-38.5 9zM587.8 720.6c-49.9 11.7-101.8 11.7-151.7 0l-9 38.5a371.3 371.3 0 0 0 169.7 0l-9-38.5zM436.2 303.4c49.9-11.7 101.8-11.7 151.7 0l9-38.5a371.3 371.3 0 0 0-169.7 0l9 38.5z m0 417.2c-65.9-15.4-117.3-66.9-132.7-132.7l-38.5 9c18.9 80.5 81.7 143.3 162.2 162.2l9-38.5zM596.8 759c80.5-18.9 143.3-81.7 162.2-162.2l-38.5-9c-15.4 65.9-66.9 117.3-132.7 132.7l9 38.5z m-9-455.6c65.9 15.4 117.3 66.9 132.7 132.7l38.5-9c-18.9-80.5-81.7-143.3-162.2-162.2l-9 38.5zM427.2 265c-80.5 18.9-143.3 81.7-162.2 162.2l38.5 9c15.4-65.9 66.9-117.3 132.7-132.7l-9-38.5z m22.3 329.2V484.6H410v109.6h39.5z m164.5 0V512h-39.5v82.2H614z m-82.2-27.4v-137h-39.5v137h39.5z" fill="#FFFFFF" p-id="1493"></path></svg>